<svg width="40" height="39" viewBox="0 0 40 39" fill="none" xmlns="http://www.w3.org/2000/svg">
<g clip-path="url(#clip0_105_70)">
<path d="M9.52344 3.91302C9.4948 4.91302 9.46065 5.86956 9.44192 6.81956C9.40888 8.52064 9.77239 10.1652 10.2747 11.7739C11.0972 14.4119 12.4354 16.8654 14.2139 18.9956C15.7979 20.9311 17.7153 22.5758 19.8781 23.8543C21.8329 25.0111 23.9818 25.8133 26.2231 26.2228C26.6538 26.3011 27.0912 26.3587 27.5285 26.3945C30.9984 26.6826 34.3273 26.1587 37.4921 24.6945C38.0693 24.4272 38.6554 24.1815 39.3438 23.8804C39.1929 24.4456 39.0817 24.9456 38.9252 25.4304C38.1255 27.9109 36.9028 30.1772 35.1865 32.1489C32.003 35.8069 27.986 38.0058 23.1354 38.7456C21.7731 38.9446 20.3932 39.0008 19.0189 38.913C16.5574 38.772 14.1482 38.1533 11.9293 37.0924C7.61045 35.0619 4.19659 31.5386 2.33464 27.1902C1.58946 25.4347 1.10707 23.5816 0.902612 21.6891C0.617307 19.1054 0.902612 16.5804 1.68803 14.0804C2.45187 11.6549 3.7208 9.41351 5.41351 7.49998C6.57936 6.17087 7.90557 4.98745 9.36261 3.97607C9.41319 3.94819 9.46726 3.92699 9.52344 3.91302Z" fill="#007BFF"/>
<path d="M37.2641 23.7087L36.4456 23.9533C36.4819 23.4272 36.5062 23.0011 36.5425 22.5761C36.8047 19.5119 36.6527 16.5043 35.3991 13.6239C34.3518 11.1672 32.706 9.00366 30.6077 7.32536C28.5094 5.64706 26.0237 4.50592 23.3712 4.00326C22.2321 3.78586 21.0788 3.74021 19.9211 3.7663C19.4496 3.77608 18.9781 3.7663 18.4615 3.7663V3.09456C18.923 3.04347 19.3725 2.95543 19.8219 2.94891C24.2976 2.88369 28.272 4.23369 31.6571 7.14347C34.1532 9.29021 35.843 11.9576 36.7992 15.0913C37.4117 17.113 37.5483 19.1793 37.4712 21.2685C37.4414 22.0652 37.339 22.85 37.2641 23.7087Z" fill="#007BFF"/>
<path d="M11.5833 12.3098L11.3685 11.6424C13.6554 8.77824 19.1202 6.37933 24.5807 8.39998C30.5787 10.6195 33.5088 16.3348 32.5527 22.3663L31.8521 22.4022C31.8411 22.238 31.8256 22.1185 31.8256 21.9978C31.8256 20.8761 31.9039 19.7478 31.8102 18.6282C31.655 16.796 31.0137 15.0363 29.9508 13.5261C27.9305 10.6032 25.1259 8.88368 21.5734 8.52607C18.0209 8.16846 14.8682 9.19889 12.2619 11.6782C12.068 11.8663 11.8686 12.0456 11.5833 12.3098Z" fill="#007BFF"/>
<path d="M26.7607 7.57393L27.1363 6.92175C27.5626 7.16849 27.9515 7.36523 28.3117 7.60327C32.0911 10.0968 34.3703 13.5326 34.9541 18.0065C35.1502 19.5 35.1072 21.0022 34.9662 22.5011C34.9034 23.1826 34.8395 23.8652 34.7712 24.5978L33.9396 24.8152C34.0079 24.0935 34.0695 23.4707 34.1257 22.8478C34.346 20.3826 34.3989 17.9326 33.5749 15.5402C33.0526 13.9908 32.2568 12.5446 31.2242 11.2685C30.178 9.95567 28.8869 8.8525 27.4205 8.01849C27.2167 7.90327 27.0306 7.75654 26.7607 7.57393Z" fill="#007BFF"/>
<path d="M16.9546 13.9837L16.6362 13.4174C16.7909 13.3056 16.9524 13.2032 17.1198 13.1109C18.1165 12.6364 19.2078 12.3873 20.3143 12.3815C23.9781 12.3511 27.1947 15.0196 27.8237 18.5631C28.044 19.7968 27.9339 21.0174 27.8237 22.2402C27.751 23.0478 27.5946 23.8489 27.4679 24.6522C27.4382 24.8468 27.3776 25.0359 27.3159 25.2859L26.6197 25.2402C26.6406 24.9978 26.6417 24.8055 26.6748 24.6152C26.9656 22.9555 27.1672 21.2902 27.1022 19.6C27.0567 18.1576 26.531 16.7702 25.6063 15.6522C24.4606 14.2392 22.9504 13.4468 21.1548 13.2022C19.8924 13.0305 18.6719 13.2652 17.5032 13.7598C17.3445 13.8326 17.1716 13.8968 16.9546 13.9837Z" fill="#007BFF"/>
<path d="M10.7506 3.89783C10.7958 3.55979 10.8277 3.32066 10.8608 3.11631C16.677 -0.456514 25.4895 -0.0695577 30.6889 3.58805L30.3166 4.15979C23.8647 0.528268 17.3721 0.422834 10.7506 3.89783Z" fill="#007BFF"/>
<path d="M25.2868 22.8522L24.6104 22.7663C24.6104 22.563 24.6027 22.3902 24.6104 22.2228C24.6556 21.4467 24.7581 20.6706 24.7459 19.8956C24.7428 18.9452 24.4278 18.0214 23.8482 17.2624C23.2686 16.5033 22.4554 15.9498 21.5305 15.6848C19.2392 15.0206 16.7596 16.3869 16.1328 18.6609C16.081 18.8478 16.0282 19.0359 15.9412 19.3522L15.3716 18.6956C15.5402 17.638 16.0722 16.8174 16.8103 16.1478C18.282 14.8109 20.0169 14.4663 21.9281 14.9956C23.9264 15.5489 25.4807 17.5663 25.4873 19.6119C25.4873 20.463 25.4509 21.313 25.4168 22.163C25.3888 22.3953 25.3454 22.6255 25.2868 22.8522Z" fill="#007BFF"/>
<path d="M29.736 25.4H28.9847C29.0508 24.9217 29.1268 24.4978 29.1665 24.0706C29.2932 22.7043 29.497 21.338 29.5047 19.9717C29.5179 17.3141 28.5133 15.0402 26.5558 13.1946C26.4654 13.1098 26.3828 13.0174 26.2606 12.8902L26.764 12.363C27.0285 12.565 27.2819 12.7809 27.5229 13.0098C29.0299 14.6033 29.9871 16.4728 30.2306 18.6435C30.3294 19.6333 30.3423 20.6297 30.2691 21.6217C30.203 22.6826 30.0147 23.7359 29.8726 24.7913C29.8472 24.9859 29.7922 25.175 29.736 25.4Z" fill="#007BFF"/>
<path d="M34.5487 7.79677L35.1645 7.34351C36.4864 8.75655 37.4304 10.3511 38.2147 12.0446C39.335 14.4565 40.0995 18.2968 39.8164 20.0631L39.1048 20.1305C39.0693 19.9253 39.0443 19.7185 39.0299 19.5109C38.977 15.3055 37.5417 11.5924 34.9343 8.29459C34.8219 8.1522 34.715 8.01198 34.5487 7.79677Z" fill="#007BFF"/>
<path d="M23.5639 5.68154L23.4163 6.33371C23.1894 6.31958 22.9944 6.31306 22.8006 6.29676C21.9612 6.22828 21.1218 6.09567 20.2835 6.09893C17.0361 6.11415 14.1246 7.10436 11.59 9.13045C11.3807 9.29676 11.1581 9.44675 10.8629 9.66306C10.7979 9.37067 10.7528 9.15763 10.6999 8.92719C12.5505 7.26632 14.682 6.2348 17.0636 5.68806C19.2003 5.18635 21.4262 5.18412 23.5639 5.68154Z" fill="#007BFF"/>
<path d="M18.239 21.3761C17.8556 21.2391 17.61 21.0304 17.578 20.7131C17.4613 19.6511 17.6001 18.6587 18.4461 17.8674C19.2689 17.1 20.2416 16.9587 21.2573 17.2761C22.2487 17.5859 22.9393 18.2946 23.0484 19.3413C23.1376 20.1946 23.0726 21.0685 23.0264 21.9304C22.9944 22.525 22.881 23.1141 22.7928 23.7044C22.7537 23.8254 22.7008 23.9417 22.6353 24.0511L22.0096 23.8261C22.0405 23.5533 22.057 23.3218 22.0944 23.0924C22.2928 21.9695 22.373 20.8294 22.3335 19.6902C22.2872 18.7457 21.4412 17.9424 20.4608 17.8815C19.4804 17.8207 18.5562 18.5174 18.413 19.4794C18.3249 20.0837 18.2985 20.6968 18.239 21.3761Z" fill="#007BFF"/>
<path d="M12.7092 14.7989L12.371 14.1402C14.2436 11.0413 19.3428 8.98479 23.3998 10.5674C23.3469 10.7544 23.2897 10.9478 23.2247 11.1924C21.9028 10.9815 20.6514 10.6489 19.3328 10.8587C18.0143 11.0685 16.7607 11.4022 15.6096 12.0891C14.4805 12.762 13.5563 13.6467 12.7092 14.7989Z" fill="#007BFF"/>
<path d="M15.4344 3.69568L15.582 4.33372C14.6699 4.72394 13.7975 5.05655 12.9658 5.46633C12.1562 5.86633 11.3873 6.34568 10.5292 6.83046V6.04785C12.0142 4.98995 13.6739 4.19411 15.4344 3.69568Z" fill="#007BFF"/>
<path d="M20.4609 22.9685L19.7999 22.5913C19.8638 21.6956 19.9277 20.8043 19.9938 19.8739H20.6702C20.8167 20.8978 20.6217 21.8619 20.4609 22.9685Z" fill="#007BFF"/>
<path d="M13.662 16.462C13.9043 15.9511 14.1125 15.5196 14.5796 15.1891L15.0312 15.6011L14.1379 17.0359L13.662 16.462Z" fill="#007BFF"/>
</g>
<defs>
<clipPath id="clip0_105_70">
<rect width="40" height="39" fill="white"/>
</clipPath>
</defs>
</svg>
