<svg width="132" height="59" viewBox="0 0 132 59" fill="none" xmlns="http://www.w3.org/2000/svg">
<path d="M14.6817 9.94257C14.6512 10.2301 14.6327 10.4596 14.6017 10.6876C14.4646 11.678 14.4139 12.6783 14.4503 13.6773C14.5258 15.5884 14.8449 17.4827 15.4 19.3155C15.8468 20.789 16.4235 22.2212 17.1235 23.5957C17.9908 25.2883 19.0388 26.8849 20.2498 28.3586C21.0077 29.2951 21.8329 30.1768 22.7188 30.997C24.1423 32.3041 25.6708 33.4723 27.3633 34.4335C28.6478 35.1731 29.9981 35.7959 31.3974 36.2941C32.725 36.7581 34.082 37.1228 35.4815 37.2998C36.3528 37.4103 37.2285 37.472 38.1041 37.5219C40.119 37.6356 42.099 37.3921 44.0588 36.9453C46.4004 36.4121 48.6026 35.5266 50.722 34.4244C50.8086 34.3798 50.8979 34.3401 51.0411 34.272C51.0209 34.4077 51.0139 34.4978 50.9932 34.5853C50.138 38.2327 48.4094 41.6258 45.9517 44.4812C44.4702 46.2127 42.7366 47.7187 40.8073 48.9502C38.6897 50.3083 36.3671 51.3275 33.9257 51.9699C32.5417 52.3364 31.1265 52.5775 29.6978 52.6902C28.6945 52.7738 27.6868 52.7928 26.681 52.7471C23.8406 52.6071 21.0944 52.0149 18.4762 50.9063C16.3208 49.9973 14.3108 48.785 12.509 47.3073C9.50948 44.8499 7.17493 41.6987 5.71401 38.1355C5.00072 36.3934 4.49632 34.5754 4.21104 32.7182C3.96817 31.1863 3.91971 29.6405 3.98887 28.0958C4.09778 25.613 4.65213 23.2149 5.5708 20.9015C6.41514 18.786 7.58512 16.811 9.03961 15.0461C10.0078 13.8516 11.0949 12.7556 12.2846 11.7742C12.9762 11.21 13.689 10.6736 14.3937 10.126C14.4634 10.0713 14.544 10.03 14.6817 9.94257Z" fill="white"/>
<path d="M69.795 33.8H65.7342C65.7843 33.4734 65.829 33.1778 65.8791 32.848L65.297 33.1076C63.9638 33.713 62.497 33.9774 61.0326 33.8762C59.1811 33.7469 57.5942 33.0287 56.3619 31.6401C55.5281 30.707 54.9989 29.5482 54.8431 28.3146C54.5671 26.2362 55.0719 24.3246 56.2002 22.5637C57.3285 20.8029 58.8685 19.4866 60.788 18.6199C62.2532 17.9491 63.8787 17.6929 65.4832 17.8797C66.7477 18.0224 67.8896 18.4665 68.8888 19.2463C69.9513 20.0756 70.669 21.1376 71.0671 22.4136C71.4651 23.6896 71.4156 24.9677 71.1792 26.2571C70.9429 27.5466 70.7147 28.8231 70.4844 30.1066C70.2782 31.2584 70.0727 32.4103 69.868 33.5624C69.8481 33.6429 69.8237 33.7222 69.795 33.8ZM63.8049 21.8649C62.914 21.8268 62.0999 22.0794 61.3598 22.5519C59.798 23.5469 58.8652 24.9162 58.9453 26.8021C58.9954 27.9821 59.5731 28.8902 60.6432 29.4641C61.4736 29.9098 62.3689 29.9613 63.2636 29.7676C65.2648 29.3348 66.9404 27.6549 67.1844 25.5883C67.3129 24.4866 67.0172 23.5061 66.1933 22.73C65.53 22.1089 64.7235 21.8236 63.8038 21.8649H63.8049Z" fill="white"/>
<path d="M75.9011 33.7984C75.9381 33.5302 75.9621 33.3012 76.0024 33.0759C76.279 31.5287 76.5578 29.9818 76.8388 28.4353C77.0365 27.3545 77.2091 26.2673 77.4541 25.1973C77.7101 24.079 78.2307 23.0636 78.9016 22.1282C79.8454 20.7967 81.0956 19.7041 82.5501 18.9395C83.8064 18.2777 85.1373 17.8668 86.5727 17.8368C86.6778 17.8368 86.7829 17.8534 86.9408 17.8668C86.7012 19.2029 86.4676 20.5068 86.2329 21.8209C86.1441 21.8393 86.0542 21.8529 85.9639 21.8616C84.6891 21.9062 83.6975 22.5053 82.8942 23.4278C81.6853 24.8138 81.1026 26.4701 80.8293 28.2503C80.6365 29.5037 80.4345 30.7556 80.2395 32.0086C80.1584 32.5288 80.0854 33.0507 80.0065 33.5715C79.9961 33.6402 79.9754 33.7072 79.952 33.7984H75.9011Z" fill="white"/>
<path d="M73.4664 18.4005H77.5446C77.5261 18.5501 77.5168 18.6719 77.495 18.791C77.132 20.8127 76.7671 22.8341 76.4005 24.8551C76.0955 26.5511 75.7933 28.2474 75.4938 29.9441C75.2876 31.1041 75.0806 32.2642 74.873 33.4246C74.8577 33.5109 74.8278 33.5951 74.7995 33.7008H70.7273C71.6432 28.585 72.5532 23.5024 73.4664 18.4005Z" fill="white"/>
<path d="M83.7476 31.6406L82.6633 37.6683H81.5416C81.5503 37.5519 81.5497 37.458 81.5661 37.3674C81.7458 36.3649 81.9298 35.3635 82.1106 34.3605C82.4069 32.6978 82.6933 31.0351 82.9961 29.3723C83.1366 28.6 83.2683 27.8233 83.4693 27.066C83.7318 26.0571 84.2507 25.1651 84.914 24.3568C85.6948 23.398 86.6801 22.62 87.8001 22.0778C88.6689 21.6467 89.6146 21.3861 90.5844 21.3108C91.6392 21.2325 92.6537 21.3542 93.6062 21.8005C95.4032 22.6415 96.4379 24.0532 96.6682 25.9959C96.9138 28.0701 96.1955 29.8615 94.8712 31.4438C93.8522 32.6814 92.4854 33.5956 90.9417 34.072C89.4136 34.5493 87.8883 34.5697 86.3908 33.9491C85.3752 33.5281 84.5785 32.8437 83.9904 31.9254L83.8042 31.6369L83.7476 31.6406ZM84.3689 28.7684C84.3689 28.9829 84.3634 29.1975 84.3689 29.412C84.3777 29.51 84.3947 29.607 84.4195 29.7022C84.7212 31.1193 85.4912 32.1856 86.8341 32.8174C88.0958 33.4074 89.3935 33.4074 90.7059 33.0121C91.9676 32.6329 93.0273 31.934 93.8921 30.9525C95.1178 29.5611 95.7234 27.9714 95.4658 26.1134C95.3399 25.1549 94.8753 24.2707 94.1534 23.6161C93.2647 22.7928 92.1718 22.4393 90.9754 22.4157C90.0733 22.4018 89.1803 22.5956 88.3676 22.9816C87.4672 23.3903 86.6632 23.9794 86.0069 24.7113C84.9723 25.8763 84.3754 27.2054 84.3689 28.7684Z" fill="white"/>
<path d="M109.292 34.3954H108.138C108.301 33.4568 108.461 32.5508 108.62 31.6449L108.565 31.6095C108.373 31.808 108.188 32.0139 107.988 32.2033C106.861 33.2701 105.533 33.9776 104.002 34.2795C102.428 34.5901 100.912 34.4238 99.5211 33.5753C98.1598 32.745 97.3729 31.5232 97.105 29.9817C96.8082 28.2728 97.2438 26.7034 98.1358 25.2434C99.0071 23.8205 100.221 22.7563 101.73 22.0322C102.579 21.6243 103.499 21.3778 104.442 21.3054C105.548 21.2169 106.6 21.3773 107.587 21.8568C109.234 22.6576 110.182 23.9905 110.492 25.7599C110.616 26.4674 110.587 27.1813 110.458 27.8925C110.123 29.7382 109.8 31.5854 109.47 33.4321C109.417 33.7475 109.354 34.0591 109.292 34.3954ZM98.1505 28.7834C98.2175 29.1868 98.2551 29.5976 98.3553 29.9929C98.7038 31.3666 99.5582 32.3411 100.871 32.8968C102.08 33.408 103.326 33.3913 104.569 33.0041C105.907 32.601 107.087 31.8037 107.95 30.7197C108.997 29.4163 109.551 27.9499 109.349 26.2641C109.207 25.0841 108.675 24.0924 107.716 23.3721C106.387 22.376 104.884 22.2103 103.299 22.6142C101.789 22.9993 100.563 23.829 99.599 25.0241C98.7109 26.1209 98.2137 27.3642 98.1483 28.7834H98.1505Z" fill="white"/>
<path d="M48.4387 34.1535L47.4639 34.552C47.4759 34.3176 47.4765 34.1417 47.495 33.9679C47.6224 32.7777 47.7199 31.5864 47.7128 30.3887C47.7079 29.6668 47.734 28.9406 47.6997 28.2229C47.6487 27.2599 47.5163 26.3027 47.3038 25.3614C46.6831 22.5257 45.4337 19.8601 43.645 17.5554C41.8564 15.2508 39.5727 13.364 36.9573 12.0301C35.0583 11.0684 33.017 10.4083 30.9089 10.074C29.4778 9.84065 28.0391 9.83475 26.5971 9.86747C26.2377 9.87551 25.8794 9.92808 25.4688 9.96509L25.3665 9.02484C25.544 8.98998 25.6747 8.94224 25.8059 8.94117C27.0105 8.93098 28.2161 8.89719 29.419 8.93259C30.8675 8.97549 32.2774 9.28283 33.6666 9.67491C35.2725 10.1313 36.8152 10.7809 38.2599 11.609C41.7176 13.5845 44.535 16.486 46.3846 19.9763C47.4056 21.8952 48.1044 23.9643 48.4539 26.1032C48.5906 26.9372 48.6293 27.7879 48.6984 28.6316C48.7372 29.0404 48.7522 29.451 48.7431 29.8615C48.7082 30.842 48.6521 31.8219 48.5955 32.8013C48.5726 33.2014 48.5258 33.6 48.4866 33.9995C48.4744 34.0519 48.4584 34.1034 48.4387 34.1535Z" fill="white"/>
<path d="M17.0925 20.4033C16.9618 20.0278 16.8502 19.7012 16.7331 19.3617C17.0658 19.035 17.3724 18.7062 17.7089 18.4096C20.0184 16.3614 22.9157 15.0684 26.002 14.7087C26.9026 14.6031 27.811 14.5758 28.7166 14.6272C30.4029 14.7241 32.0603 15.103 33.6175 15.7477C35.143 16.378 36.5532 17.2504 37.7921 18.3302C39.3545 19.6766 40.6156 21.3284 41.4951 23.1806C42.1512 24.5576 42.5827 26.028 42.7737 27.5375C42.9327 28.7577 42.8684 29.9811 42.8641 31.203C42.8641 31.6637 42.7987 32.1244 42.7601 32.6275L41.8343 32.553C41.8343 32.1706 41.8283 31.8434 41.8343 31.5167C41.843 31.1606 41.873 30.8044 41.8801 30.4478C41.8888 29.9919 41.885 29.5359 41.8833 29.0806C41.879 27.7933 41.6492 26.5425 41.2647 25.3153C40.7318 23.6014 39.8541 22.0106 38.6841 20.6377C37.565 19.3057 36.2052 18.1893 34.6734 17.3449C33.1663 16.5133 31.5156 15.9643 29.8051 15.7257C28.7708 15.5854 27.724 15.5557 26.6832 15.6372C24.7773 15.7777 22.9802 16.2996 21.2856 17.1637C19.8584 17.8945 18.5708 18.8638 17.4802 20.0284C17.3713 20.1426 17.2521 20.2483 17.0925 20.4033Z" fill="white"/>
<path d="M114.738 31.787L121.888 21.6632H123.115C123.086 21.8536 112.072 37.5277 111.606 38.0437H110.337C111.45 36.4196 112.587 34.8706 113.69 33.2653L111.637 21.6691H112.865C113.466 25.0496 114.065 28.4183 114.662 31.7752L114.738 31.787Z" fill="white"/>
<path d="M15.9407 10.1458L16.188 8.95727C20.0107 6.85436 24.1067 5.86584 28.4758 5.99171C32.7914 6.10864 36.789 7.30634 40.4974 9.58535L39.9703 10.4054C36.2837 8.16237 32.3057 7.00168 28.0081 6.96521C23.7104 6.92874 19.7112 8.01756 16.0121 10.1834L15.9407 10.1458Z" fill="white"/>
<path d="M35.6024 14.5473L36.0441 13.696C36.3457 13.857 36.6267 13.9964 36.8963 14.1536C37.9978 14.7951 39.0291 15.5468 39.9741 16.3966C43.0386 19.151 45.0398 22.8658 45.6375 26.9094C45.8313 28.2031 45.8553 29.508 45.8008 30.8114C45.76 31.8176 45.6712 32.8222 45.5868 33.8263C45.5471 34.3047 45.4681 34.7805 45.4017 35.2938L44.367 35.5781C44.397 35.3303 44.4166 35.149 44.4411 34.9661C44.6126 33.674 44.7553 32.3803 44.7743 31.0753C44.7831 30.5046 44.8195 29.9334 44.819 29.3627C44.803 25.4288 43.3757 21.6272 40.7893 18.6295C39.4615 17.0838 37.8586 15.7897 36.0593 14.8106C35.9155 14.7355 35.7772 14.6508 35.6024 14.5473Z" fill="white"/>
<path d="M23.6532 22.4104C23.4899 22.1357 23.3369 21.8788 23.1631 21.587C23.381 21.4685 23.5574 21.3634 23.7415 21.2749C25.1562 20.5864 26.7284 20.2721 28.3037 20.3631C30.2799 20.4741 32.0546 21.1344 33.6012 22.3616C34.9125 23.3941 35.9108 24.7615 36.4873 26.3146C36.8407 27.251 37.0449 28.2192 37.0427 29.2206C37.0427 30.0594 37.0384 30.9005 36.9845 31.7372C36.8966 33.1901 36.6932 34.6339 36.3762 36.0555C36.3589 36.0942 36.3381 36.1314 36.3141 36.1665L35.4091 36.0528C35.4119 35.9451 35.4207 35.8377 35.4352 35.731C35.6756 34.5315 35.849 33.32 35.9547 32.1019C36.0462 31.0319 36.1056 29.9602 36.0386 28.8912C35.9384 27.2822 35.3704 25.8243 34.3733 24.5424C33.0762 22.8754 31.3674 21.8424 29.2736 21.4674C27.402 21.1317 25.6104 21.4138 23.9217 22.2902C23.8433 22.331 23.7611 22.3626 23.6532 22.4104Z" fill="white"/>
<path d="M107.939 48.0399C107.528 48.4224 107.095 48.7705 106.533 48.9239C106.122 49.0402 105.687 49.0541 105.269 48.9641C104.814 48.8643 104.503 48.5886 104.314 48.1644C104.067 47.6108 104.099 47.0498 104.247 46.4856C104.486 45.5791 104.912 44.7644 105.567 44.0837C106.292 43.3328 107.191 42.9906 108.245 43.1108C108.64 43.1553 108.966 43.3451 109.165 43.7045C109.217 43.7978 109.267 43.8922 109.341 44.0263C109.44 43.7581 109.528 43.5243 109.622 43.2754H110.641C110.609 43.3993 110.592 43.5007 110.559 43.5972C110.069 45.0181 109.587 46.44 109.079 47.8565C108.872 48.447 108.628 49.0244 108.349 49.5852C107.822 50.6215 106.911 51.1594 105.78 51.3643C105.161 51.4818 104.521 51.426 103.933 51.2034C103.298 50.9637 102.939 50.3216 103.273 49.7225H104.212C104.225 49.7466 104.241 49.7617 104.241 49.7761C104.245 50.2975 104.343 50.4198 104.864 50.549C105.86 50.7947 106.899 50.3619 107.373 49.4516C107.607 49.0027 107.754 48.5098 107.938 48.0367L107.939 48.0399ZM105.271 46.8943C105.261 47.8243 105.719 48.2641 106.426 48.1858C106.779 48.1475 107.115 48.0106 107.392 47.7911C108.247 47.1244 108.715 46.2383 108.837 45.1854C108.91 44.5563 108.502 43.9035 107.711 43.9641C107.383 43.9845 107.068 44.0928 106.798 44.2773C105.819 44.9585 105.399 45.9433 105.273 46.8943H105.271Z" fill="white"/>
<path d="M85.1139 45.8907H83.3631C83.4639 45.5829 83.5472 45.3265 83.6354 45.0535H86.4905C86.1186 46.2871 85.6671 47.4585 85.2723 48.6471C84.5769 48.9458 83.8772 49.1652 83.1398 49.2215C82.6989 49.2612 82.255 49.2549 81.8155 49.2028C80.6507 49.0478 80.0729 48.2336 80.0021 47.1576C79.9624 46.5612 80.0958 45.9857 80.2673 45.4182C80.5358 44.5316 80.8756 43.6745 81.4321 42.9219C82.249 41.8208 83.2956 41.0447 84.6929 40.8301C85.3878 40.7229 86.0886 40.7373 86.735 41.0833C87.3057 41.3879 87.5518 42.0734 87.2921 42.702H86.3233C86.3157 42.6607 86.3106 42.619 86.3081 42.5771C86.3151 42.112 86.1392 41.8567 85.6862 41.7371C84.9505 41.543 84.2654 41.6953 83.6305 42.0858C82.9738 42.4902 82.5109 43.0753 82.1471 43.7313C81.6652 44.5992 81.3303 45.5201 81.2214 46.514C81.1707 47.001 81.2595 47.4585 81.5312 47.8715C81.6946 48.1247 81.9587 48.255 82.2441 48.3312C82.6002 48.4261 82.9639 48.4063 83.3217 48.3408C83.6158 48.2887 83.9067 48.2203 84.193 48.1359C84.291 48.1064 84.4108 48.0179 84.444 47.9289C84.6771 47.2997 84.89 46.6636 85.1079 46.0286C85.1148 45.983 85.1168 45.9368 85.1139 45.8907Z" fill="white"/>
<path d="M33.8871 33.1768L32.9227 33.0572C32.9597 32.6924 33.0016 32.3497 33.0283 32.0064C33.1171 30.8747 33.2249 29.7365 33.0523 28.6112C32.8067 27.007 31.9272 25.783 30.5217 24.9463C28.6991 23.8607 26.3178 23.9894 24.6242 25.2504C23.4888 26.0957 22.7945 27.2129 22.5549 28.5984C22.538 28.6944 22.5124 28.7888 22.4868 28.9019C22.2723 28.8317 22.1868 28.6397 22.0397 28.5201C21.6776 28.224 21.6351 27.885 21.8034 27.4516C22.6812 25.1908 24.2953 23.7507 26.7196 23.334C28.8298 22.9714 30.7047 23.5378 32.2561 25.045C33.3126 26.071 33.9154 27.3089 34.0984 28.7496C34.2105 29.6319 34.1272 30.5148 34.0662 31.396C34.033 31.8852 33.9867 32.3738 33.9432 32.8625C33.9328 32.9569 33.9094 33.0496 33.8871 33.1768Z" fill="white"/>
<path d="M39.2706 36.2759H38.3002C38.3737 35.8516 38.4537 35.459 38.5082 35.0632C38.6231 34.2238 38.7554 33.3849 38.8251 32.5423C38.9101 31.5114 38.9885 30.4751 38.9809 29.4421C38.9618 26.8525 38.1335 24.5285 36.4612 22.5187C36.08 22.058 35.6264 21.6525 35.2087 21.2223C35.1461 21.1585 35.0808 21.0979 34.9909 21.0121L35.6041 20.2842C35.7571 20.4044 35.8823 20.4912 35.994 20.5926C37.7605 22.1963 38.9814 24.1326 39.5771 26.4272C39.7618 27.1448 39.8767 27.8781 39.9202 28.6172C39.9728 29.5615 39.9728 30.508 39.9202 31.4524C39.8457 33.0399 39.6454 34.6193 39.3212 36.1761C39.3077 36.211 39.2908 36.2444 39.2706 36.2759Z" fill="white"/>
<path d="M45.1436 14.7859L45.8972 14.1482C49.7314 18.6885 51.663 23.8564 51.6532 29.7349C51.3019 29.8685 51.0051 29.7596 50.6664 29.7263C50.6697 24.1026 48.8253 19.1364 45.1436 14.7859Z" fill="white"/>
<path d="M16.158 17.2446C16.0824 16.8295 16.0197 16.4841 15.9517 16.1108C18.0517 14.2946 20.5557 12.9901 23.2618 12.3026C26.0733 11.5806 28.8946 11.5458 31.771 12.1599C31.6996 12.4962 31.6376 12.7874 31.5668 13.1216C28.8097 12.5316 26.0826 12.5772 23.3767 13.2922C20.6708 14.0071 18.2862 15.3293 16.158 17.2446Z" fill="white"/>
<path d="M78.4877 14.2517C78.5166 15.2622 77.7128 16.255 76.7996 16.6503C76.2213 16.9008 75.6283 16.9609 75.0298 16.7345C74.2048 16.4218 73.7419 15.6264 73.8525 14.742C74.0158 13.46 75.2629 12.3664 76.5676 12.3653C77.6965 12.3648 78.4905 13.1457 78.4877 14.2517Z" fill="white"/>
<path d="M25.2526 31.521L24.3917 30.8146C24.3765 30.7851 24.3648 30.754 24.3568 30.7218C24.4031 29.8272 24.3024 28.9207 24.6972 28.062C25.3457 26.6573 26.9652 25.8581 28.4981 26.1745C30.104 26.5039 31.24 27.9354 31.2242 29.5322C31.2086 31.1208 31.0607 32.7056 30.782 34.2704C30.7586 34.3997 30.7243 34.5279 30.6824 34.7102L29.7751 34.3133C29.8247 33.9888 29.884 33.6927 29.9129 33.3945C30.0055 32.5262 30.0964 31.6567 30.171 30.7867C30.2075 30.3576 30.2195 29.9285 30.22 29.5027C30.22 28.1736 29.2055 27.1105 27.8534 27.089C27.2186 27.0713 26.6026 27.3025 26.1408 27.7318C25.6789 28.1612 25.409 28.7535 25.3904 29.3788C25.3637 30.0294 25.3256 30.68 25.2913 31.3301C25.282 31.3944 25.2691 31.4581 25.2526 31.521Z" fill="white"/>
<path d="M31.6174 18.1216C31.5241 18.4177 31.4346 18.7018 31.3489 18.9739C26.0477 17.6265 21.7648 19.0613 18.4397 23.3774L17.9534 22.42C19.5844 20.2671 21.6771 18.7926 24.2741 17.9886C26.7828 17.2103 29.902 17.4157 31.6174 18.1216Z" fill="white"/>
<path d="M98.4761 48.9958H97.4339L99.4052 43.2792H100.44C100.365 43.5366 100.299 43.7619 100.217 44.0414C100.309 43.9684 100.367 43.925 100.422 43.8805C101.052 43.3478 101.759 43.0421 102.611 43.0958C103.373 43.144 103.843 43.6359 103.751 44.3868C103.698 44.7669 103.609 45.1411 103.482 45.504C103.12 46.5902 102.735 47.6693 102.357 48.7506C102.328 48.8327 102.287 48.9115 102.248 48.9979H101.247C101.278 48.881 101.296 48.7903 101.326 48.704C101.707 47.5851 102.088 46.4684 102.462 45.3479C102.533 45.1361 102.576 44.9165 102.591 44.6941C102.612 44.383 102.438 44.1765 102.132 44.0821C101.705 43.9507 101.323 44.0939 100.959 44.2827C100.239 44.6582 99.794 45.2637 99.5299 46.0045C99.2107 46.898 98.908 47.797 98.5965 48.6927C98.5644 48.7903 98.5203 48.8869 98.4761 48.9958Z" fill="white"/>
<path d="M91.7808 47.539C92.8732 46.1155 93.9659 44.6923 95.059 43.2695H96.1307C94.6463 45.2181 93.1792 47.1024 91.7198 48.9963H90.6748C90.5229 47.0986 90.4026 45.2101 90.2773 43.2867H91.3762C91.532 44.6963 91.5685 46.1187 91.7084 47.5309L91.7808 47.539Z" fill="white"/>
<path d="M15.7523 13.8285V12.618C17.6005 11.3232 19.6187 10.3652 21.8464 9.70013C21.9395 10.0161 22.0261 10.31 22.1252 10.6479C19.8258 11.3264 17.6677 12.4035 15.7523 13.8285Z" fill="white"/>
<path d="M95.9619 48.9963H94.9273C95.5933 47.0654 96.2462 45.1731 96.9013 43.2749H97.9131C97.9021 43.3751 97.8839 43.4744 97.8586 43.572C97.2596 45.3138 96.6588 47.0545 96.0561 48.7941C96.0283 48.8631 95.9969 48.9306 95.9619 48.9963Z" fill="white"/>
<path d="M87.4936 48.9925H86.4344C87.0982 47.0681 87.7501 45.1801 88.4062 43.2781H89.4513C88.8109 45.2106 88.14 47.0884 87.4936 48.9925Z" fill="white"/>
<path d="M27.9721 33.3618L27.1008 32.8319C27.1825 31.6921 27.2609 30.5931 27.3415 29.4598H28.3054C28.3039 30.7673 28.1924 32.0724 27.9721 33.3618Z" fill="white"/>
<path d="M20.693 23.6402C20.9539 23.8548 21.1864 24.0457 21.4129 24.2302L20.1844 26.1965L19.5822 25.3164C19.8604 24.7022 20.2438 24.1803 20.693 23.6402Z" fill="white"/>
<path d="M98.3868 42.0203H97.3756C97.4121 41.6556 97.5782 41.3622 97.6909 41.034H98.7277C98.6096 41.3783 98.5028 41.6867 98.3868 42.0203Z" fill="white"/>
<path d="M89.185 41.0318H90.2359C90.1151 41.3789 90.0061 41.6932 89.8923 42.0193H88.8479C88.966 41.6701 89.0706 41.3649 89.185 41.0318Z" fill="white"/>
<path d="M42.2972 36.0163L41.3001 36.1632C41.3382 35.9246 41.3671 35.7481 41.4019 35.5303L42.3663 35.6682C42.3418 35.7964 42.3217 35.8951 42.2972 36.0163Z" fill="white"/>
<path d="M14.9818 9.74053L15.0307 9.68781L15.0468 9.70784L14.9845 9.74317L14.9818 9.74053Z" fill="white"/>
<path d="M14.9838 9.74448L14.9725 9.75262L14.9812 9.74142L14.9838 9.74448Z" fill="white"/>
<path d="M128.025 20.406H127.65C127.616 20.2601 127.498 19.6744 127.475 19.5387L126.975 20.406C126.79 20.1265 126.623 19.8365 126.473 19.5376L126.307 20.4049H125.954C126.002 20.1002 126.281 18.888 126.368 18.5866C126.477 18.7722 126.879 19.5311 126.974 19.7248C127.078 19.5328 127.513 18.7808 127.628 18.5984C127.699 18.8902 127.767 19.1881 127.834 19.492C127.901 19.7959 127.965 20.1006 128.025 20.406Z" fill="white"/>
<path d="M124.618 18.6188H125.838V18.9583H125.441V20.4065H125.053V18.9583H124.617C124.619 18.8451 124.618 18.7319 124.618 18.6188Z" fill="white"/>
</svg>
