<svg width="141" height="50" viewBox="0 0 141 50" fill="none" xmlns="http://www.w3.org/2000/svg">
<path d="M16.5234 8.91306C16.4948 9.91306 16.4606 10.8696 16.4419 11.8196C16.4089 13.5207 16.7724 15.1652 17.2747 16.7739C18.0972 19.4119 19.4354 21.8654 21.2139 23.9957C22.7979 25.9311 24.7153 27.5759 26.8781 28.8544C28.8329 30.0112 30.9818 30.8133 33.2231 31.2228C33.6538 31.3011 34.0912 31.3587 34.5285 31.3946C37.9984 31.6826 41.3273 31.1587 44.4921 29.6946C45.0693 29.4272 45.6554 29.1815 46.3438 28.8804C46.1929 29.4457 46.0817 29.9457 45.9252 30.4304C45.1255 32.9109 43.9028 35.1772 42.1865 37.1489C39.003 40.8069 34.986 43.0058 30.1354 43.7457C28.7731 43.9447 27.3932 44.0008 26.0189 43.9131C23.5574 43.772 21.1482 43.1533 18.9293 42.0924C14.6104 40.0619 11.1966 36.5386 9.33464 32.1902C8.58946 30.4348 8.10707 28.5817 7.90261 26.6891C7.61731 24.1054 7.90261 21.5804 8.68803 19.0804C9.45187 16.6549 10.7208 14.4135 12.4135 12.5C13.5794 11.1709 14.9056 9.98748 16.3626 8.9761C16.4132 8.94822 16.4673 8.92702 16.5234 8.91306Z" fill="white"/>
<path d="M68.6681 35.9859C67.1578 35.9935 65.6839 35.9859 64.1517 35.9859C64.188 35.5935 64.2156 35.2978 64.2508 34.9109L63.0248 35.3869C61.7965 35.8576 60.5176 36.1315 59.2057 36.0739C56.7635 35.9652 54.6661 35.0902 53.1471 33.1141C52.33 32.0553 51.8335 30.7898 51.715 29.4641C51.4077 26.2293 52.6029 23.5511 54.8225 21.2435C56.0568 19.9405 57.5902 18.9493 59.2938 18.3533C61.5509 17.5685 63.8311 17.4511 66.0574 18.4315C68.4599 19.4891 69.8743 21.3478 70.3601 23.8989C70.609 25.2033 70.4229 26.4946 70.1926 27.7804C69.7388 30.3283 69.2813 32.8764 68.8201 35.425C68.7859 35.5967 68.7276 35.7609 68.6681 35.9859ZM61.8604 22.3087C59.2409 22.1869 56.075 24.8641 56.3185 28.0587C56.4617 29.9424 58.081 31.7033 60.4482 31.513C62.8882 31.3174 64.5747 29.9913 65.4724 27.7793C66.6555 24.8641 64.6209 22.2196 61.8604 22.3087Z" fill="white"/>
<path d="M88.2351 17.812C87.9719 19.2891 87.7108 20.7565 87.4475 22.2304C87.32 22.2837 87.187 22.3234 87.051 22.3489C85.3821 22.4652 84.1803 23.3522 83.2319 24.6315C82.203 26.0174 81.6137 27.587 81.3416 29.275C81.0111 31.3294 80.7016 33.387 80.3788 35.4424C80.3407 35.6145 80.2929 35.7843 80.2356 35.9511H75.7368C75.7377 35.7164 75.7521 35.482 75.7798 35.2489C76.259 32.5587 76.7514 29.8696 77.2283 27.1783C77.6295 24.7813 78.8195 22.5814 80.6145 20.9185C82.3176 19.3163 84.296 18.2402 86.6357 17.8652C87.0686 17.7957 87.5092 17.7663 87.9465 17.7283C88.0462 17.743 88.1433 17.7712 88.2351 17.812Z" fill="white"/>
<path d="M77.4233 18.4109C77.4993 18.8456 74.5945 35.2293 74.3235 35.8717C72.8727 35.9109 71.3845 35.8924 69.7972 35.8772C70.8448 30.0076 71.8747 24.2272 72.9113 18.4109H77.4233Z" fill="white"/>
<path d="M84.6176 33.4435C84.1902 35.8228 83.7804 38.0967 83.3663 40.4H82.1369C82.1215 40.2282 82.1215 40.0555 82.1369 39.8837C82.5643 37.4989 82.9961 35.1152 83.4324 32.7326C83.6527 31.5228 83.873 30.3152 84.0933 29.1054C84.4238 27.2576 85.3392 25.7185 86.6687 24.4076C88.0556 23.0413 89.7035 22.138 91.6434 21.7989C93.9335 21.4033 95.9836 21.8967 97.6612 23.5446C98.7331 24.5978 99.2706 25.913 99.3455 27.3946C99.4832 30.088 98.3993 32.2783 96.466 34.1196C95.0043 35.513 93.2715 36.4087 91.2678 36.6119C88.6042 36.8815 86.3306 36.1239 84.8357 33.7511C84.7895 33.6837 84.7355 33.612 84.6176 33.4435ZM98.0247 27.7913C98.0242 26.8258 97.7108 25.8859 97.1303 25.1087C95.8194 23.3609 94.0096 22.7467 91.9001 23.0435C89.7322 23.3489 87.9917 24.438 86.7051 26.1956C85.6134 27.687 85.0461 29.3315 85.3601 31.187C85.6179 32.7174 86.4077 33.913 87.7945 34.6804C89.0602 35.3837 90.4052 35.5587 91.8252 35.262C93.7348 34.8809 95.4304 33.8074 96.5773 32.2533C97.5015 31.038 98.0567 29.6739 98.0247 27.7924V27.7913Z" fill="white"/>
<path d="M113.669 36.6065H112.43C112.604 35.5859 112.769 34.6152 112.936 33.6435L112.846 33.5717C112.711 33.6935 112.568 33.8076 112.442 33.9381C111.553 34.8567 110.473 35.5737 109.275 36.0391C107.707 36.6652 106.1 36.8413 104.428 36.4739C101.521 35.8315 99.459 33.1207 99.7564 29.8881C99.9558 27.7326 100.915 25.9261 102.425 24.425C104.078 22.7783 106.12 21.7717 108.484 21.6859C111.795 21.5674 114.608 23.5337 115.107 27.0565C115.249 28.0544 115.057 28.9967 114.886 29.9544C114.51 32.0732 114.133 34.1917 113.756 36.3098C113.732 36.4101 113.703 36.5092 113.669 36.6065ZM108.556 22.9609C108.264 22.9826 107.969 22.9859 107.674 23.0294C106.305 23.2272 105.019 23.7966 103.959 24.6739C102.096 26.2033 100.999 28.1131 101.076 30.5598C101.13 32.2696 101.902 33.6283 103.354 34.5587C104.659 35.3957 106.108 35.6076 107.624 35.2652C110.317 34.6587 112.215 33.0804 113.32 30.5967C113.743 29.6457 113.96 28.6228 113.834 27.5761C113.47 24.5294 111.074 22.9402 108.556 22.9609Z" fill="white"/>
<path d="M116.335 40.7609H115.003C116.215 38.913 117.492 37.2109 118.739 35.3826C117.976 31.0464 117.205 26.6543 116.425 22.2065H117.778L119.832 33.763C120.88 32.4522 121.714 31.1543 122.612 29.8967C123.509 28.6391 124.417 27.3456 125.317 26.0685C126.217 24.7913 127.114 23.5152 128.034 22.2087H129.323C129.204 22.625 116.917 40.175 116.335 40.7609Z" fill="white"/>
<path d="M44.2641 28.7087L43.4456 28.9533C43.4819 28.4272 43.5062 28.0011 43.5425 27.5761C43.8047 24.5119 43.6527 21.5043 42.3991 18.6239C41.3518 16.1672 39.706 14.0037 37.6077 12.3254C35.5094 10.6471 33.0237 9.50592 30.3712 9.00326C29.2321 8.78586 28.0788 8.74021 26.9211 8.7663C26.4496 8.77608 25.9781 8.7663 25.4615 8.7663V8.09456C25.923 8.04347 26.3725 7.95543 26.8219 7.94891C31.2976 7.88369 35.272 9.23369 38.6571 12.1435C41.1532 14.2902 42.843 16.9576 43.7992 20.0913C44.4117 22.113 44.5483 24.1793 44.4712 26.2685C44.4414 27.0652 44.339 27.85 44.2641 28.7087Z" fill="white"/>
<path d="M18.5833 17.3098L18.3685 16.6424C20.6554 13.7783 26.1202 11.3794 31.5807 13.4C37.5787 15.6196 40.5088 21.3348 39.5527 27.3663L38.8521 27.4022C38.8411 27.2381 38.8256 27.1185 38.8256 26.9978C38.8256 25.8761 38.9039 24.7478 38.8102 23.6283C38.655 21.796 38.0137 20.0363 36.9508 18.5261C34.9305 15.6033 32.1259 13.8837 28.5734 13.5261C25.0209 13.1685 21.8682 14.1989 19.2619 16.6783C19.068 16.8663 18.8686 17.0457 18.5833 17.3098Z" fill="white"/>
<path d="M76.4121 11.5217C77.9631 11.5217 78.9391 12.8185 78.515 14.2913C78.0997 15.7282 76.8836 16.5739 75.6068 16.6337C74.144 16.7 73.1184 15.5119 73.3497 14.088C73.5778 12.6859 74.9712 11.5217 76.4121 11.5217Z" fill="white"/>
<path d="M33.7607 12.5739L34.1363 11.9218C34.5626 12.1685 34.9515 12.3652 35.3117 12.6033C39.0911 15.0968 41.3703 18.5326 41.9541 23.0065C42.1502 24.5 42.1072 26.0022 41.9662 27.5011C41.9034 28.1826 41.8395 28.8652 41.7712 29.5978L40.9396 29.8152C41.0079 29.0935 41.0695 28.4707 41.1257 27.8478C41.346 25.3826 41.3989 22.9326 40.5749 20.5402C40.0526 18.9908 39.2568 17.5446 38.2242 16.2685C37.178 14.9557 35.8869 13.8525 34.4205 13.0185C34.2167 12.9033 34.0306 12.7565 33.7607 12.5739Z" fill="white"/>
<path d="M23.9546 18.9837L23.6362 18.4174C23.7909 18.3055 23.9524 18.2032 24.1198 18.1109C25.1165 17.6364 26.2078 17.3872 27.3143 17.3815C30.9781 17.3511 34.1947 20.0196 34.8237 23.563C35.044 24.7967 34.9339 26.0174 34.8237 27.2402C34.751 28.0478 34.5946 28.8489 34.4679 29.6522C34.4382 29.8467 34.3776 30.0359 34.3159 30.2859L33.6197 30.2402C33.6406 29.9978 33.6417 29.8054 33.6748 29.6152C33.9656 27.9554 34.1672 26.2902 34.1022 24.6C34.0567 23.1576 33.531 21.7702 32.6063 20.6522C31.4606 19.2391 29.9504 18.4467 28.1548 18.2022C26.8924 18.0304 25.6719 18.2652 24.5032 18.7598C24.3445 18.8326 24.1716 18.8967 23.9546 18.9837Z" fill="white"/>
<path d="M17.7506 8.89783C17.7958 8.55979 17.8277 8.32066 17.8608 8.11631C23.677 4.54349 32.4895 4.93044 37.6889 8.58805L37.3166 9.15979C30.8647 5.52827 24.3721 5.42283 17.7506 8.89783Z" fill="white"/>
<path d="M32.2868 27.8522L31.6104 27.7663C31.6104 27.563 31.6027 27.3902 31.6104 27.2228C31.6556 26.4467 31.7581 25.6706 31.7459 24.8956C31.7428 23.9452 31.4278 23.0214 30.8482 22.2624C30.2686 21.5033 29.4554 20.9498 28.5305 20.6848C26.2392 20.0206 23.7596 21.3869 23.1328 23.6609C23.081 23.8478 23.0282 24.0359 22.9412 24.3522L22.3716 23.6956C22.5402 22.638 23.0722 21.8174 23.8103 21.1478C25.282 19.8109 27.0169 19.4663 28.9281 19.9956C30.9264 20.5489 32.4807 22.5663 32.4873 24.6119C32.4873 25.463 32.4509 26.313 32.4168 27.163C32.3888 27.3953 32.3454 27.6255 32.2868 27.8522Z" fill="white"/>
<path d="M36.736 30.4H35.9847C36.0508 29.9217 36.1268 29.4978 36.1665 29.0706C36.2932 27.7043 36.497 26.338 36.5047 24.9717C36.5179 22.3141 35.5133 20.0402 33.5558 18.1946C33.4654 18.1098 33.3828 18.0174 33.2606 17.8902L33.764 17.363C34.0285 17.565 34.2819 17.7809 34.5229 18.0098C36.0299 19.6033 36.9871 21.4728 37.2306 23.6435C37.3294 24.6333 37.3423 25.6297 37.2691 26.6217C37.203 27.6826 37.0147 28.7359 36.8726 29.7913C36.8472 29.9859 36.7922 30.175 36.736 30.4Z" fill="white"/>
<path d="M41.5487 12.7967L42.1645 12.3435C43.4864 13.7565 44.4304 15.3511 45.2147 17.0446C46.335 19.4565 47.0995 23.2967 46.8164 25.063L46.1048 25.1304C46.0693 24.9253 46.0443 24.7185 46.0299 24.5109C45.977 20.3054 44.5417 16.5924 41.9343 13.2946C41.8219 13.1522 41.715 13.012 41.5487 12.7967Z" fill="white"/>
<path d="M30.5639 10.6815L30.4163 11.3337C30.1894 11.3196 29.9944 11.3131 29.8006 11.2968C28.9612 11.2283 28.1218 11.0957 27.2835 11.0989C24.0361 11.1141 21.1246 12.1044 18.59 14.1305C18.3807 14.2968 18.1581 14.4468 17.8629 14.6631C17.7979 14.3707 17.7528 14.1576 17.6999 13.9272C19.5505 12.2663 21.682 11.2348 24.0636 10.6881C26.2003 10.1864 28.4262 10.1841 30.5639 10.6815Z" fill="white"/>
<path d="M25.239 26.3761C24.8556 26.2391 24.61 26.0304 24.578 25.7131C24.4613 24.6511 24.6001 23.6587 25.4461 22.8674C26.2689 22.1 27.2416 21.9587 28.2573 22.2761C29.2487 22.5859 29.9393 23.2946 30.0484 24.3413C30.1376 25.1946 30.0726 26.0685 30.0264 26.9304C29.9944 27.525 29.881 28.1141 29.7928 28.7044C29.7537 28.8254 29.7008 28.9417 29.6353 29.0511L29.0096 28.8261C29.0405 28.5533 29.057 28.3218 29.0944 28.0924C29.2928 26.9695 29.373 25.8294 29.3335 24.6902C29.2872 23.7457 28.4412 22.9424 27.4608 22.8815C26.4804 22.8207 25.5562 23.5174 25.413 24.4794C25.3249 25.0837 25.2985 25.6968 25.239 26.3761Z" fill="white"/>
<path d="M19.7092 19.7989L19.371 19.1402C21.2436 16.0413 26.3428 13.9848 30.3998 15.5674C30.3469 15.7544 30.2897 15.9478 30.2247 16.1924C28.9028 15.9815 27.6514 15.6489 26.3328 15.8587C25.0143 16.0685 23.7607 16.4022 22.6096 17.0891C21.4805 17.762 20.5563 18.6467 19.7092 19.7989Z" fill="white"/>
<path d="M22.4344 8.69565L22.582 9.33369C21.6699 9.72391 20.7975 10.0565 19.9658 10.4663C19.1562 10.8663 18.3873 11.3456 17.5292 11.8304V11.0478C19.0142 9.98992 20.6739 9.19408 22.4344 8.69565Z" fill="white"/>
<path d="M27.4609 27.9685L26.7999 27.5913C26.8638 26.6956 26.9277 25.8043 26.9938 24.8739H27.6702C27.8167 25.8978 27.6217 26.8619 27.4609 27.9685Z" fill="white"/>
<path d="M20.662 21.4619C20.9043 20.9511 21.1125 20.5196 21.5796 20.1891L22.0312 20.6011L21.1379 22.0359L20.662 21.4619Z" fill="white"/>
<path d="M38.4445 30.2283L38.5227 29.8489L39.2454 29.95C39.0184 30.3533 38.7463 30.2717 38.4445 30.2283Z" fill="white"/>
<path d="M131.985 18.9413V20.6804H131.713V18.9413L131.236 18.9337C131.236 18.8565 131.236 18.7804 131.236 18.7032L132.466 18.7098C132.466 18.7837 132.466 18.8576 132.466 18.9272L131.985 18.9413Z" fill="white"/>
<path d="M132.095 20.7935H131.603V19.0489L131.125 19.0413V18.5935L132.573 18.6022V19.037L132.086 19.0467L132.095 20.7935ZM131.823 20.5761H131.875V18.837L132.359 18.8272V18.8196L131.347 18.8141V18.8293L131.823 18.837V20.5761Z" fill="white"/>
<path d="M134.557 20.475L134.316 19.4674L133.83 20.4967L133.346 19.4674L133.111 20.475H132.848L133.228 18.9065L133.839 20.0511L134.41 18.9065L134.822 20.475H134.557Z" fill="white"/>
<path d="M133.83 20.7544L133.38 19.8011L133.198 20.5837H132.707L133.188 18.6L133.833 19.812L134.44 18.5967L134.962 20.5837H134.47L134.282 19.7978L133.83 20.7544ZM134.644 20.3663H134.678L134.376 19.2174V19.2272L134.644 20.3663ZM132.992 20.3663H133.028L133.29 19.2478L133.271 19.213L132.992 20.3663Z" fill="white"/>
</svg>
